<svg width="31" height="31" viewBox="0 0 31 31" fill="none" xmlns="http://www.w3.org/2000/svg">
    <path class="ren-logo" fill-rule="evenodd" clip-rule="evenodd" d="M4.22832 6.51869L6.50289 5.20916L6.80925 5.73645L15.1936 0.889439L14.5809 0.535981L13.9653 0.176729L13.659 0L0 7.90935V8.2628L3.92197 5.9885L4.22832 6.51869Z"
        fill="#212122" />
    <path class="ren-logo" fill-rule="evenodd" clip-rule="evenodd" d="M4.22832 11.4991L10.8006 7.69217L11.1069 8.22815L19.4913 3.37824L18.8786 3.01899L18.263 2.66553L17.9566 2.4917L0 12.8839V13.2374L3.92197 10.9631L4.22832 11.4991Z"
        fill="#212122" />
    <path class="ren-logo" fill-rule="evenodd" clip-rule="evenodd" d="M4.22832 13.9875L12.948 8.9406L13.2572 9.47079L21.6387 4.61509L21.026 4.26743L20.4133 3.90817L20.104 3.73145L0 15.3666V15.7258L3.92197 13.4544L4.22832 13.9875Z"
        fill="#212122" />
    <path class="ren-logo" fill-rule="evenodd" clip-rule="evenodd" d="M4.22832 16.4736L15.159 10.149L15.4682 10.6792L23.789 5.86405L23.1763 5.5048L22.5607 5.15134L22.2543 4.97461L0 17.8584V18.2119L3.92197 15.9376L4.22832 16.4736Z"
        fill="#212122" />
    <path class="ren-logo" fill-rule="evenodd" clip-rule="evenodd" d="M4.22832 18.9563L17.3092 11.3888L17.6156 11.9248L25.9364 7.10383L25.3237 6.75327L24.711 6.39401L24.4017 6.21729L0 20.3411V20.6946L3.92197 18.4261L4.22832 18.9563Z"
        fill="#212122" />
    <path class="ren-logo" fill-rule="evenodd" clip-rule="evenodd" d="M26.8584 7.64008L26.552 7.46045L0 22.833V23.1864L3.92197 20.9179L4.22832 21.4481L17.3092 13.8806L17.6156 14.4108L27.3179 8.79895V8.08624V7.90951L26.8584 7.64008Z"
        fill="#212122" />
    <path class="ren-logo" fill-rule="evenodd" clip-rule="evenodd" d="M1.68241 24.6955L3.88184 23.4237L4.18819 23.9539L17.246 16.398L17.5524 16.9339L27.3183 11.2815V10.5688V9.8561V9.50293L1.38184 24.5191L1.68241 24.6955Z"
        fill="#212122" />
    <path class="ren-logo" fill-rule="evenodd" clip-rule="evenodd" d="M17.2461 18.8895L17.5524 19.4257L27.3183 13.773V13.0603V12.3476V11.9941L3.5293 25.7619L3.83855 25.9383L6.06976 24.6433L6.37901 25.1793"
        fill="#212122" />
    <path class="ren-logo" fill-rule="evenodd" clip-rule="evenodd" d="M5.98597 27.1845L8.22007 25.8865L8.52643 26.4222L17.2461 21.3724L17.5524 21.9087L27.3183 16.256V15.5433V14.8363V14.48L5.67383 27.0017L5.98597 27.1845Z"
        fill="#212122" />
    <path class="ren-logo" fill-rule="evenodd" clip-rule="evenodd" d="M8.13351 28.4275L10.3676 27.135L10.6769 27.6652L17.2462 23.8644L17.5526 24.3943L27.3185 18.7418V18.0352V17.3225V16.9688L7.82715 28.2507L8.13351 28.4275Z"
        fill="#212122" />
    <path class="ren-logo" fill-rule="evenodd" clip-rule="evenodd" d="M9.97656 29.4933L10.2829 29.6698L12.5228 28.375L12.8234 28.911L17.2453 26.347L17.5517 26.883L27.3176 21.2302V20.5178V19.8051V19.4517L9.97656 29.4933Z"
        fill="#212122" />
    <path class="ren-logo" fill-rule="evenodd" clip-rule="evenodd" d="M12.4304 30.9189L14.6645 29.618L14.9708 30.154L17.2454 28.8329L17.5518 29.3689L27.3177 23.7222V23.0095V22.2968V21.9434L12.124 30.7421L12.4304 30.9189Z"
        fill="#212122" />
    <path class="ren-logo" fill-rule="evenodd" clip-rule="evenodd" d="M17.3439 2.1326L16.7283 1.77915L16.1156 1.42569L15.8092 1.24316L0 10.3925V10.746L3.92197 8.48036L4.22832 9.00765L8.65029 6.44943L8.96532 6.98541L17.3439 2.1326Z"
        fill="#212122" />
</svg>